<svg viewBox="0 0 248 59" fill="none" xmlns="http://www.w3.org/2000/svg">
<path d="M44.1976 45.1788L35.9254 43.1173C35.4815 43.0075 35.0148 43.1469 34.7037 43.4821L28.9145 49.7422L26.9852 43.281L26.0297 40.081L25.3204 37.7056L24.6041 35.3064L24.017 33.3403L23.3006 30.9411L22.7133 28.9742L21.997 26.5751L21.4099 24.609L36.693 20.0456L37.2801 22.0116L37.9965 24.4108L38.5838 26.3777L39.3001 28.7769L39.8872 30.743L40.6036 33.1421L41.3128 35.5175L42.2683 38.7176L44.1976 45.1788ZM80.1417 23.9236L43.7096 34.8019L43.0003 32.4265L73.3197 23.3734C73.8737 23.2079 74.1627 22.5389 73.9642 21.8739C73.7666 21.2123 73.1573 20.8088 72.6033 20.9742L42.2839 30.0273L41.6969 28.0613L72.0162 19.0081C72.5702 18.8427 72.8585 18.1711 72.6607 17.5087C72.463 16.8463 71.8539 16.4435 71.2999 16.609L40.9805 25.6621L40.3932 23.6952L70.7126 14.6421C71.2666 14.4766 71.5549 13.805 71.3573 13.1435C71.1595 12.481 70.5502 12.0775 69.9962 12.2429L39.6768 21.296L39.0898 19.3299L69.1852 10.3437C69.8622 10.1415 70.2514 9.43981 70.0536 8.77738C69.8559 8.11495 69.1456 7.74152 68.4685 7.94367L13.3486 24.402C12.6712 24.6043 12.2815 25.3062 12.4793 25.9686C12.6771 26.631 13.3878 27.0043 14.0652 26.8021L19.0132 25.3247L19.6002 27.2907L12.7268 29.3431C12.1015 29.5298 11.7556 30.2186 11.9534 30.881C12.1509 31.5426 12.8178 31.929 13.4432 31.7422L20.3166 29.6899L20.9039 31.6568L14.0305 33.7091C13.4051 33.8959 13.059 34.5838 13.2568 35.2462C13.4546 35.9087 14.1215 36.295 14.7469 36.1083L21.6203 34.056L22.2073 36.022L17.1636 37.528C16.5386 37.7147 16.1923 38.4036 16.3899 39.0651C16.5879 39.7284 17.2549 40.1139 17.8799 39.9272L22.9237 38.4212L23.633 40.7966L20.3099 41.7889C17.6083 42.5955 14.7548 42.3015 12.2744 40.96C9.792 39.6163 7.98016 37.3879 7.17274 34.6838C5.50619 29.1024 8.68761 23.2066 14.2642 21.5415L73.4894 3.85731C74.3726 3.5936 74.874 2.66411 74.6103 1.78087C74.3465 0.89763 73.4173 0.394403 72.5341 0.658115L13.3089 18.3423C5.96989 20.5337 1.78339 28.2928 3.97664 35.6382C5.03916 39.1966 7.42296 42.1292 10.6894 43.8974C13.9543 45.6624 17.7104 46.0504 21.2654 44.9889L22.3886 44.6535L24.5885 43.9966L27.1459 52.5615C27.2744 52.9921 27.623 53.3209 28.0608 53.4223C28.2772 53.4724 28.4977 53.4649 28.7021 53.4038C28.9134 53.3407 29.1071 53.2219 29.2633 53.055L36.0391 45.7261L45.7223 48.1404C46.158 48.2471 46.6191 48.1141 46.9293 47.7884C47.2398 47.4635 47.351 46.9974 47.2225 46.5668L44.6651 38.0019L81.0972 27.1236C81.9787 26.8604 82.4807 25.9298 82.217 25.0466C81.9533 24.1633 81.0232 23.6603 80.1417 23.9236Z" fill="currentColor"/>
<path d="M116.424 11.5615L110.719 29H106.385L102.548 17.1916L98.5872 29H94.2774L88.5476 11.5615H92.7328L96.6689 23.8183L100.779 11.5615H104.516L108.502 23.9179L112.563 11.5615H116.424ZM123.783 29.1993C122.372 29.1993 121.101 28.9087 119.972 28.3274C118.859 27.7295 117.987 26.9074 117.356 25.8611C116.725 24.8148 116.409 23.6273 116.409 22.2986C116.409 20.97 116.725 19.7825 117.356 18.7362C117.987 17.6899 118.859 16.8761 119.972 16.2948C121.101 15.6969 122.372 15.398 123.783 15.398C125.195 15.398 126.457 15.6969 127.57 16.2948C128.683 16.8761 129.555 17.6899 130.186 18.7362C130.817 19.7825 131.132 20.97 131.132 22.2986C131.132 23.6273 130.817 24.8148 130.186 25.8611C129.555 26.9074 128.683 27.7295 127.57 28.3274C126.457 28.9087 125.195 29.1993 123.783 29.1993ZM123.783 26.0105C124.78 26.0105 125.594 25.6784 126.225 25.0141C126.872 24.3331 127.196 23.428 127.196 22.2986C127.196 21.1693 126.872 20.2725 126.225 19.6081C125.594 18.9272 124.78 18.5867 123.783 18.5867C122.787 18.5867 121.965 18.9272 121.317 19.6081C120.669 20.2725 120.345 21.1693 120.345 22.2986C120.345 23.428 120.669 24.3331 121.317 25.0141C121.965 25.6784 122.787 26.0105 123.783 26.0105ZM137.442 17.366C137.907 16.7183 138.53 16.2284 139.31 15.8962C140.108 15.5641 141.021 15.398 142.051 15.398V18.9853C141.619 18.9521 141.328 18.9355 141.179 18.9355C140.066 18.9355 139.194 19.2511 138.563 19.8822C137.932 20.4967 137.616 21.4267 137.616 22.6723V29H133.73V15.5973H137.442V17.366ZM157.892 10.5152V29H154.18V27.4554C153.216 28.618 151.821 29.1993 149.995 29.1993C148.732 29.1993 147.586 28.917 146.557 28.3523C145.544 27.7876 144.746 26.9821 144.165 25.9358C143.584 24.8895 143.293 23.6771 143.293 22.2986C143.293 20.9202 143.584 19.7078 144.165 18.6615C144.746 17.6152 145.544 16.8097 146.557 16.245C147.586 15.6803 148.732 15.398 149.995 15.398C151.705 15.398 153.042 15.9377 154.005 17.0173V10.5152H157.892ZM150.667 26.0105C151.647 26.0105 152.461 25.6784 153.109 25.0141C153.756 24.3331 154.08 23.428 154.08 22.2986C154.08 21.1693 153.756 20.2725 153.109 19.6081C152.461 18.9272 151.647 18.5867 150.667 18.5867C149.671 18.5867 148.849 18.9272 148.201 19.6081C147.553 20.2725 147.229 21.1693 147.229 22.2986C147.229 23.428 147.553 24.3331 148.201 25.0141C148.849 25.6784 149.671 26.0105 150.667 26.0105ZM165.998 29.1993C164.885 29.1993 163.797 29.0664 162.734 28.8007C161.671 28.5184 160.824 28.1696 160.193 27.7544L161.489 24.9642C162.086 25.3462 162.809 25.6618 163.656 25.9109C164.503 26.1434 165.333 26.2597 166.147 26.2597C167.791 26.2597 168.613 25.8528 168.613 25.039C168.613 24.657 168.389 24.383 167.941 24.2169C167.492 24.0508 166.803 23.9096 165.873 23.7934C164.777 23.6273 163.872 23.4363 163.158 23.2204C162.444 23.0045 161.821 22.6225 161.289 22.0744C160.774 21.5264 160.517 20.7458 160.517 19.7327C160.517 18.8857 160.758 18.1383 161.239 17.4906C161.738 16.8263 162.452 16.3114 163.382 15.946C164.329 15.5807 165.441 15.398 166.72 15.398C167.667 15.398 168.605 15.5059 169.535 15.7218C170.482 15.9211 171.262 16.2035 171.877 16.5688L170.581 19.3341C169.402 18.6698 168.115 18.3376 166.72 18.3376C165.89 18.3376 165.267 18.4539 164.852 18.6864C164.436 18.9189 164.229 19.2178 164.229 19.5832C164.229 19.9984 164.453 20.2891 164.902 20.4551C165.35 20.6212 166.064 20.779 167.044 20.9285C168.14 21.1112 169.037 21.3105 169.734 21.5264C170.432 21.7257 171.038 22.0993 171.553 22.6474C172.068 23.1955 172.325 23.9594 172.325 24.9393C172.325 25.7697 172.076 26.5088 171.578 27.1565C171.08 27.8042 170.349 28.3108 169.386 28.6761C168.439 29.0249 167.31 29.1993 165.998 29.1993ZM194.155 15.9959L189.222 29H188.051L183.667 17.7148L179.257 29H178.111L173.179 15.9959H174.374L178.709 27.6049L183.143 15.9959H184.215L188.624 27.58L193.009 15.9959H194.155ZM203.405 15.8962C205.032 15.8962 206.319 16.3695 207.266 17.3162C208.213 18.2629 208.686 19.6247 208.686 21.4018V29H207.44V21.5014C207.44 20.0399 207.067 18.9272 206.319 18.1632C205.589 17.3993 204.559 17.0173 203.23 17.0173C201.702 17.0173 200.498 17.474 199.618 18.3874C198.738 19.3009 198.298 20.5299 198.298 22.0744V29H197.052V10.5152H198.298V18.7113C198.746 17.8145 199.41 17.1252 200.291 16.6436C201.171 16.1453 202.209 15.8962 203.405 15.8962ZM224.825 22.7969H213.639C213.672 23.81 213.93 24.7151 214.411 25.5123C214.893 26.2929 215.541 26.8991 216.355 27.3309C217.185 27.7627 218.115 27.9786 219.145 27.9786C219.992 27.9786 220.772 27.8291 221.486 27.5302C222.217 27.2146 222.823 26.7579 223.305 26.16L224.028 26.9821C223.463 27.663 222.749 28.1862 221.885 28.5516C221.038 28.917 220.116 29.0996 219.12 29.0996C217.824 29.0996 216.67 28.8173 215.657 28.2526C214.644 27.688 213.847 26.9074 213.265 25.9109C212.701 24.9144 212.418 23.7768 212.418 22.4979C212.418 21.2357 212.684 20.1064 213.216 19.1099C213.764 18.0968 214.511 17.3079 215.458 16.7432C216.404 16.1786 217.467 15.8962 218.647 15.8962C219.826 15.8962 220.88 16.1786 221.81 16.7432C222.757 17.2913 223.496 18.0636 224.028 19.0601C224.576 20.0565 224.85 21.1859 224.85 22.4481L224.825 22.7969ZM218.647 16.9924C217.733 16.9924 216.911 17.2 216.18 17.6152C215.449 18.0137 214.86 18.5867 214.411 19.3341C213.98 20.0648 213.731 20.8953 213.664 21.8253H223.629C223.579 20.8953 223.33 20.0648 222.882 19.3341C222.433 18.6033 221.844 18.0304 221.113 17.6152C220.382 17.2 219.56 16.9924 218.647 16.9924ZM239.689 22.7969H228.504C228.537 23.81 228.794 24.7151 229.276 25.5123C229.758 26.2929 230.405 26.8991 231.219 27.3309C232.05 27.7627 232.98 27.9786 234.009 27.9786C234.856 27.9786 235.637 27.8291 236.351 27.5302C237.082 27.2146 237.688 26.7579 238.17 26.16L238.892 26.9821C238.327 27.663 237.613 28.1862 236.75 28.5516C235.903 28.917 234.981 29.0996 233.984 29.0996C232.689 29.0996 231.535 28.8173 230.522 28.2526C229.509 27.688 228.711 26.9074 228.13 25.9109C227.565 24.9144 227.283 23.7768 227.283 22.4979C227.283 21.2357 227.549 20.1064 228.08 19.1099C228.628 18.0968 229.376 17.3079 230.322 16.7432C231.269 16.1786 232.332 15.8962 233.511 15.8962C234.69 15.8962 235.745 16.1786 236.675 16.7432C237.622 17.2913 238.361 18.0636 238.892 19.0601C239.44 20.0565 239.714 21.1859 239.714 22.4481L239.689 22.7969ZM233.511 16.9924C232.598 16.9924 231.776 17.2 231.045 17.6152C230.314 18.0137 229.724 18.5867 229.276 19.3341C228.844 20.0648 228.595 20.8953 228.529 21.8253H238.494C238.444 20.8953 238.195 20.0648 237.746 19.3341C237.298 18.6033 236.708 18.0304 235.977 17.6152C235.247 17.2 234.425 16.9924 233.511 16.9924ZM243.568 10.5152H244.813V29H243.568V10.5152Z" fill="currentColor"/>
<path d="M92.1973 38.1275H94.9169C95.6303 38.1275 96.2619 38.2747 96.8117 38.5693C97.3681 38.8638 97.8 39.2729 98.1077 39.7965C98.4153 40.3136 98.5691 40.9027 98.5691 41.5637C98.5691 42.2248 98.4153 42.8172 98.1077 43.3408C97.8 43.8579 97.3681 44.2637 96.8117 44.5582C96.2619 44.8527 95.6303 45 94.9169 45H92.1973V38.1275ZM94.8776 44.5484C95.5125 44.5484 96.0721 44.424 96.5564 44.1753C97.0408 43.92 97.4139 43.5666 97.6757 43.115C97.9375 42.6633 98.0684 42.1463 98.0684 41.5637C98.0684 40.9812 97.9375 40.4641 97.6757 40.0125C97.4139 39.5609 97.0408 39.2107 96.5564 38.962C96.0721 38.7067 95.5125 38.5791 94.8776 38.5791H92.698V44.5484H94.8776ZM100.309 38.1275H100.809V45H100.309V38.1275ZM105.011 45.0491C104.507 45.0491 104.026 44.964 103.567 44.7938C103.116 44.6171 102.762 44.3913 102.507 44.1164L102.733 43.7433C102.975 43.9986 103.299 44.208 103.705 44.3717C104.117 44.5287 104.549 44.6073 105.001 44.6073C105.655 44.6073 106.149 44.4829 106.483 44.2342C106.817 43.9855 106.984 43.6615 106.984 43.2622C106.984 42.9546 106.896 42.7092 106.719 42.5259C106.542 42.3426 106.323 42.2019 106.061 42.1037C105.799 42.0055 105.446 41.9041 105.001 41.7994C104.497 41.675 104.091 41.5539 103.783 41.4361C103.482 41.3183 103.224 41.1383 103.008 40.8961C102.798 40.6474 102.694 40.3169 102.694 39.9045C102.694 39.5707 102.782 39.2663 102.959 38.9914C103.135 38.71 103.404 38.4875 103.764 38.3238C104.13 38.1602 104.585 38.0784 105.128 38.0784C105.508 38.0784 105.881 38.134 106.248 38.2453C106.614 38.3566 106.932 38.5071 107.2 38.6969L107.013 39.0994C106.739 38.9096 106.434 38.7656 106.1 38.6675C105.773 38.5693 105.449 38.5202 105.128 38.5202C104.493 38.5202 104.012 38.6478 103.685 38.9031C103.358 39.1584 103.194 39.4889 103.194 39.8947C103.194 40.2023 103.283 40.4478 103.459 40.631C103.636 40.8143 103.855 40.955 104.117 41.0532C104.379 41.1514 104.736 41.2561 105.187 41.3674C105.691 41.4917 106.094 41.6128 106.395 41.7306C106.696 41.8485 106.951 42.0285 107.161 42.2706C107.377 42.5063 107.485 42.827 107.485 43.2328C107.485 43.5666 107.393 43.8709 107.21 44.1458C107.033 44.4207 106.758 44.64 106.385 44.8036C106.012 44.9673 105.554 45.0491 105.011 45.0491ZM112.093 45.0491C111.419 45.0491 110.81 44.8985 110.267 44.5975C109.73 44.2964 109.305 43.8808 108.99 43.3506C108.683 42.8204 108.529 42.2248 108.529 41.5637C108.529 40.9027 108.683 40.307 108.99 39.7769C109.305 39.2467 109.73 38.8311 110.267 38.53C110.81 38.2289 111.419 38.0784 112.093 38.0784C112.59 38.0784 113.049 38.1602 113.467 38.3238C113.886 38.4809 114.243 38.7165 114.538 39.0307L114.223 39.3547C113.674 38.8115 112.97 38.5398 112.113 38.5398C111.537 38.5398 111.013 38.6707 110.542 38.9325C110.07 39.1944 109.701 39.5576 109.432 40.0223C109.164 40.4805 109.03 40.9943 109.03 41.5637C109.03 42.1332 109.164 42.6503 109.432 43.115C109.701 43.5731 110.07 43.9331 110.542 44.1949C111.013 44.4567 111.537 44.5876 112.113 44.5876C112.963 44.5876 113.667 44.3127 114.223 43.7629L114.538 44.0869C114.243 44.4011 113.883 44.64 113.458 44.8036C113.039 44.9673 112.584 45.0491 112.093 45.0491ZM118.987 45.0491C118.313 45.0491 117.704 44.8985 117.161 44.5975C116.617 44.2898 116.189 43.8709 115.875 43.3408C115.567 42.8106 115.413 42.2183 115.413 41.5637C115.413 40.9092 115.567 40.3169 115.875 39.7867C116.189 39.2565 116.617 38.8409 117.161 38.5398C117.704 38.2322 118.313 38.0784 118.987 38.0784C119.661 38.0784 120.27 38.2289 120.813 38.53C121.356 38.8311 121.782 39.2467 122.089 39.7769C122.403 40.307 122.561 40.9027 122.561 41.5637C122.561 42.2248 122.403 42.8204 122.089 43.3506C121.782 43.8808 121.356 44.2964 120.813 44.5975C120.27 44.8985 119.661 45.0491 118.987 45.0491ZM118.987 44.5876C119.563 44.5876 120.083 44.4567 120.548 44.1949C121.013 43.9331 121.379 43.5731 121.647 43.115C121.916 42.6503 122.05 42.1332 122.05 41.5637C122.05 40.9943 121.916 40.4805 121.647 40.0223C121.379 39.5576 121.013 39.1944 120.548 38.9325C120.083 38.6707 119.563 38.5398 118.987 38.5398C118.411 38.5398 117.887 38.6707 117.416 38.9325C116.951 39.1944 116.585 39.5576 116.316 40.0223C116.048 40.4805 115.914 40.9943 115.914 41.5637C115.914 42.1332 116.048 42.6503 116.316 43.115C116.585 43.5731 116.951 43.9331 117.416 44.1949C117.887 44.4567 118.411 44.5876 118.987 44.5876ZM129.574 38.1275L126.511 45H126.011L122.947 38.1275H123.497L126.276 44.352L129.054 38.1275H129.574ZM135.425 44.5484V45H130.683V38.1275H135.277V38.5791H131.183V41.2888H134.845V41.7306H131.183V44.5484H135.425ZM142.022 45L140.382 42.7026C140.14 42.7353 139.917 42.7517 139.715 42.7517H137.751V45H137.25V38.1275H139.715C140.579 38.1275 141.256 38.3337 141.747 38.746C142.238 39.1518 142.483 39.718 142.483 40.4445C142.483 40.9878 142.343 41.4459 142.061 41.819C141.786 42.1855 141.39 42.4441 140.873 42.5946L142.591 45H142.022ZM139.715 42.3099C140.448 42.3099 141.007 42.1495 141.393 41.8288C141.78 41.5016 141.973 41.0401 141.973 40.4445C141.973 39.8489 141.78 39.3907 141.393 39.07C141.007 38.7427 140.448 38.5791 139.715 38.5791H137.751V42.3099H139.715ZM151.668 45.0982L150.677 44.0575C150.395 44.3847 150.062 44.6335 149.675 44.8036C149.289 44.9673 148.861 45.0491 148.389 45.0491C147.957 45.0491 147.571 44.9771 147.231 44.8331C146.89 44.6891 146.625 44.4862 146.436 44.2244C146.246 43.9626 146.151 43.6648 146.151 43.331C146.151 42.9317 146.285 42.5684 146.553 42.2412C146.822 41.9074 147.28 41.5506 147.928 41.171L147.918 41.1514C147.578 40.7979 147.345 40.5034 147.221 40.2678C147.097 40.0256 147.034 39.7671 147.034 39.4922C147.034 39.0667 147.182 38.7264 147.476 38.4711C147.771 38.2158 148.167 38.0882 148.664 38.0882C149.129 38.0882 149.495 38.206 149.764 38.4416C150.039 38.6707 150.176 38.9882 150.176 39.394C150.176 39.7343 150.058 40.042 149.823 40.3169C149.594 40.5852 149.188 40.8896 148.605 41.2299L150.638 43.38C150.86 42.9873 151.024 42.5226 151.129 41.9859L151.531 42.1135C151.4 42.7484 151.204 43.2753 150.942 43.6942L151.963 44.7742L151.668 45.0982ZM147.496 39.4922C147.496 39.7082 147.552 39.9176 147.663 40.1205C147.774 40.3169 147.993 40.5885 148.321 40.9354C148.864 40.6212 149.237 40.3561 149.44 40.1401C149.643 39.9176 149.744 39.6722 149.744 39.4038C149.744 39.1158 149.649 38.89 149.459 38.7264C149.27 38.5562 149.005 38.4711 148.664 38.4711C148.298 38.4711 148.01 38.566 147.8 38.7558C147.597 38.9391 147.496 39.1845 147.496 39.4922ZM148.409 44.6367C149.247 44.6367 149.905 44.3389 150.382 43.7433L148.213 41.4557C147.61 41.8092 147.195 42.1201 146.966 42.3884C146.743 42.6568 146.632 42.9579 146.632 43.2917C146.632 43.6909 146.796 44.0149 147.123 44.2637C147.457 44.5124 147.885 44.6367 148.409 44.6367ZM155.793 38.1275H156.294V44.5484H160.25V45H155.793V38.1275ZM166.278 44.5484V45H161.536V38.1275H166.131V38.5791H162.037V41.2888H165.699V41.7306H162.037V44.5484H166.278ZM172.355 43.0659H168.369L167.495 45H166.955L170.116 38.1275H170.617L173.779 45H173.239L172.355 43.0659ZM172.168 42.6437L170.362 38.6773L168.565 42.6437H172.168ZM179.798 45L178.158 42.7026C177.916 42.7353 177.693 42.7517 177.49 42.7517H175.527V45H175.026V38.1275H177.49C178.354 38.1275 179.032 38.3337 179.523 38.746C180.014 39.1518 180.259 39.718 180.259 40.4445C180.259 40.9878 180.118 41.4459 179.837 41.819C179.562 42.1855 179.166 42.4441 178.649 42.5946L180.367 45H179.798ZM177.49 42.3099C178.224 42.3099 178.783 42.1495 179.169 41.8288C179.556 41.5016 179.749 41.0401 179.749 40.4445C179.749 39.8489 179.556 39.3907 179.169 39.07C178.783 38.7427 178.224 38.5791 177.49 38.5791H175.527V42.3099H177.49ZM187.689 38.1275V45H187.276L182.593 39.0307V45H182.092V38.1275H182.515L187.188 44.0968V38.1275H187.689Z" fill="currentColor"/>
</svg>
