<?xml version="1.0" standalone="no"?>
<!DOCTYPE svg PUBLIC "-//W3C//DTD SVG 20010904//EN"
 "http://www.w3.org/TR/2001/REC-SVG-20010904/DTD/svg10.dtd">
<svg version="1.0" xmlns="http://www.w3.org/2000/svg"
 width="260.000000pt" height="260.000000pt" viewBox="0 0 260.000000 260.000000"
 preserveAspectRatio="xMidYMid meet">
<metadata>
Created by potrace 1.11, written by Peter Selinger 2001-2013
</metadata>
<g transform="translate(0.000000,260.000000) scale(0.100000,-0.100000)"
fill="#000000" stroke="none">
<path d="M1290 1829 c-492 -148 -918 -281 -946 -294 -28 -14 -75 -50 -103 -80
-167 -176 -158 -434 20 -600 107 -98 260 -130 413 -85 42 13 78 21 80 19 2 -2
20 -60 40 -129 40 -133 49 -150 75 -150 9 0 63 52 121 115 57 63 107 115 112
115 5 0 73 -16 153 -36 79 -20 151 -34 160 -30 22 8 19 32 -22 171 -20 69 -35
127 -32 129 2 2 202 63 444 135 697 209 664 198 671 227 9 37 -21 67 -61 59
-16 -3 -266 -77 -555 -164 -289 -87 -528 -155 -532 -152 -4 4 -10 20 -13 36
l-6 30 368 110 c590 175 553 162 553 189 0 53 -5 52 -484 -91 -384 -115 -459
-135 -466 -123 -25 40 -19 43 383 163 215 64 422 126 460 138 58 17 67 23 67
43 0 55 -4 54 -484 -90 -251 -76 -458 -135 -460 -133 -3 2 -7 15 -11 29 l-6
26 413 124 c227 68 434 130 461 138 42 12 47 16 47 43 0 16 -6 32 -14 35 -8 3
-220 -56 -471 -131 -251 -76 -458 -136 -460 -134 -2 2 -6 16 -10 30 l-6 26
443 132 c244 73 451 137 461 142 21 12 23 57 2 65 -8 3 -378 -103 -822 -236
-445 -134 -822 -247 -840 -252 -38 -10 -52 -43 -30 -66 14 -14 24 -13 97 8 69
20 83 21 91 9 16 -26 10 -47 -18 -54 -16 -3 -65 -18 -111 -31 -78 -24 -82 -27
-82 -54 0 -16 7 -30 16 -34 9 -3 63 8 121 26 88 27 106 30 114 17 22 -36 11
-45 -98 -77 -122 -36 -137 -48 -109 -87 13 -18 17 -18 126 14 61 18 113 31
115 29 2 -1 6 -15 10 -29 6 -25 3 -26 -77 -50 -80 -24 -83 -26 -83 -55 0 -39
23 -41 115 -14 40 12 74 19 77 16 3 -2 6 -19 6 -37 2 -31 0 -32 -63 -51 -172
-51 -333 18 -403 171 -30 65 -30 187 0 252 28 63 87 126 142 153 25 13 449
144 941 291 492 147 901 272 908 278 29 23 2 88 -36 86 -9 0 -420 -122 -912
-270z m-161 -356 c6 -21 55 -189 110 -373 55 -184 99 -335 98 -337 -2 -1 -54
11 -117 27 -63 16 -124 30 -135 30 -13 0 -51 -34 -105 -95 -47 -52 -88 -95
-92 -95 -8 0 -7 -5 -128 405 -73 249 -97 341 -88 345 44 16 416 128 430 129
12 1 20 -11 27 -36z"/>
</g>
</svg>
